<?xml version="1.0" encoding="utf-8"?>
<!-- Generator: Adobe Illustrator 15.0.0, SVG Export Plug-In  -->
<!DOCTYPE svg PUBLIC "-//W3C//DTD SVG 1.1//EN" "http://www.w3.org/Graphics/SVG/1.1/DTD/svg11.dtd" [
	<!ENTITY ns_flows "http://ns.adobe.com/Flows/1.0/">
]>
<svg version="1.1"
	 xmlns="http://www.w3.org/2000/svg" xmlns:xlink="http://www.w3.org/1999/xlink" xmlns:a="http://ns.adobe.com/AdobeSVGViewerExtensions/3.0/"
	 x="0px" y="0px" width="196px" height="196px" viewBox="-44.36 -66.523 196 196" enable-background="new -44.36 -66.523 196 196"
	 xml:space="preserve">
<defs>
</defs>
<path fill="#A7A9A6" d="M56.715,61.205l48.816-48.816c2.087-2.086,2.087-5.47,0-7.557l-3.267-3.267c-2.087-2.087-5.47-2.087-7.557,0
	L53.415,42.859c-0.015,0.014-0.037,0.014-0.052,0L13.316,2.812C10.34-0.165,5.439-0.479,2.387,2.42
	c-3.133,2.976-3.181,7.928-0.145,10.965l45.089,46.063c0.19,0.191,0.392,0.367,0.6,0.529l1.228,1.228
	C51.245,63.292,54.629,63.292,56.715,61.205z"/>
</svg>
