<?xml version="1.0" encoding="utf-8"?>
<!-- Generator: Adobe Illustrator 15.0.0, SVG Export Plug-In  -->
<!DOCTYPE svg PUBLIC "-//W3C//DTD SVG 1.1//EN" "http://www.w3.org/Graphics/SVG/1.1/DTD/svg11.dtd" [
	<!ENTITY ns_flows "http://ns.adobe.com/Flows/1.0/">
]>
<svg version="1.1"
	 xmlns="http://www.w3.org/2000/svg" xmlns:xlink="http://www.w3.org/1999/xlink" xmlns:a="http://ns.adobe.com/AdobeSVGViewerExtensions/3.0/"
	 x="0px" y="0px" width="100px" height="100px" viewBox="0 0 100 100" enable-background="new 0 0 100 100" xml:space="preserve">
<defs>
</defs>
<defs>
	<filter id="Adobe_OpacityMaskFilter" filterUnits="userSpaceOnUse" x="0" y="0" width="99.797" height="99.797">
		<feColorMatrix  type="matrix" values="1 0 0 0 0  0 1 0 0 0  0 0 1 0 0  0 0 0 1 0"/>
	</filter>
</defs>
<mask maskUnits="userSpaceOnUse" x="0" y="0" width="99.797" height="99.797" id="SVGID_1_">
	<g filter="url(#Adobe_OpacityMaskFilter)">
		<radialGradient id="SVGID_2_" cx="49.8984" cy="49.8984" r="49.8984" gradientUnits="userSpaceOnUse">
			<stop  offset="0.3531" style="stop-color:#949494"/>
			<stop  offset="0.4014" style="stop-color:#818082"/>
			<stop  offset="0.5573" style="stop-color:#4B4D51"/>
			<stop  offset="0.6981" style="stop-color:#292B30"/>
			<stop  offset="0.8191" style="stop-color:#121418"/>
			<stop  offset="0.9154" style="stop-color:#040507"/>
			<stop  offset="0.975" style="stop-color:#010202"/>
		</radialGradient>
		<circle fill="url(#SVGID_2_)" cx="49.898" cy="49.898" r="49.898"/>
	</g>
</mask>
<circle mask="url(#SVGID_1_)" fill="#3668B0" cx="49.898" cy="49.898" r="49.898"/>
<linearGradient id="SVGID_3_" gradientUnits="userSpaceOnUse" x1="21.959" y1="29.1289" x2="69.6897" y2="76.8596">
	<stop  offset="0" style="stop-color:#19407E"/>
	<stop  offset="1" style="stop-color:#3B68B0"/>
</linearGradient>
<path fill="url(#SVGID_3_)" d="M81.152,49.959c0,17.553-14.229,31.781-31.781,31.781c-17.552,0-31.781-14.229-31.781-31.781
	s14.229-31.781,31.781-31.781c-6.847,3.895-11.854,11.536-12.991,17.615c-1.605,8.583,2.354,15.822,5.155,18.806
	c6.752,7.192,14.854,9.726,23.616,7.471C70.594,60.668,77.103,57.469,81.152,49.959z"/>
<path fill="#4694D1" d="M49.016,83.324c-18.318,0-33.223-14.904-33.223-33.227c0-0.932,0.756-1.689,1.689-1.689
	c0.935,0,1.689,0.758,1.689,1.689c0,16.459,13.389,29.846,29.844,29.846c14.559,0,26.715-10.475,29.328-24.283
	c-4.627,5.605-11.572,8.982-19.104,8.982c-13.656,0-24.77-11.109-24.77-24.768c0-2.211,0.293-4.404,0.869-6.523
	c0.561-2.055,1.387-4.031,2.455-5.877c1.486-2.561,3.428-4.838,5.704-6.713c-1.884,0.354-3.728,0.885-5.514,1.598
	c-6.198,2.469-11.456,7.014-14.812,12.801c-0.777,1.342-1.453,2.752-2.007,4.189c-0.336,0.871-1.312,1.309-2.185,0.971
	c-0.87-0.336-1.305-1.314-0.971-2.184c0.621-1.604,1.373-3.172,2.238-4.67c3.732-6.441,9.586-11.5,16.485-14.246
	c3.907-1.557,8.04-2.346,12.28-2.346c0.451,0,0.896,0.016,1.342,0.033c0.789,0.031,1.455,0.609,1.596,1.387
	s-0.277,1.553-1.006,1.859c-4.27,1.799-7.904,4.998-10.229,9.014c-0.924,1.594-1.635,3.297-2.119,5.07
	c-0.496,1.828-0.748,3.727-0.748,5.637c0,11.795,9.596,21.391,21.389,21.391c8.631,0,16.373-5.139,19.723-13.092
	c0.307-0.729,1.08-1.146,1.858-1.008c0.778,0.143,1.354,0.807,1.388,1.594c0.016,0.445,0.031,0.893,0.031,1.338
	C82.24,68.42,67.336,83.324,49.016,83.324z"/>
<path fill="#97D5F0" d="M81.21,48.795c-0.014-0.313-0.253-0.587-0.569-0.646c-0.289-0.052-0.633,0.119-0.756,0.413
	c-3.507,8.325-11.609,13.704-20.645,13.704c-12.345,0-22.389-10.045-22.389-22.391c0-2,0.264-3.984,0.783-5.898
	c0.508-1.86,1.254-3.646,2.219-5.31c2.431-4.199,6.232-7.549,10.705-9.434c0.295-0.125,0.468-0.444,0.41-0.76
	c-0.057-0.315-0.33-0.553-0.651-0.566c-0.432-0.017-0.864-0.032-1.302-0.032c-4.114,0-8.121,0.765-11.91,2.275
	c-6.691,2.663-12.37,7.57-15.99,13.818c-0.839,1.452-1.569,2.977-2.171,4.53c-0.136,0.352,0.043,0.752,0.399,0.889
	c0.354,0.14,0.758-0.052,0.891-0.397c0.571-1.485,1.27-2.942,2.074-4.331c3.468-5.98,8.903-10.678,15.307-13.229
	c1.826-0.729,3.744-1.284,5.699-1.651l3.821-0.717l-3.001,2.472c-2.206,1.817-4.048,3.985-5.475,6.443
	c-1.025,1.771-1.818,3.668-2.355,5.638c-0.554,2.035-0.834,4.141-0.834,6.26c0,13.105,10.664,23.768,23.77,23.768
	c7.129,0,13.811-3.142,18.332-8.619l2.479-3.002l-0.725,3.824c-2.752,14.543-15.499,25.098-30.311,25.098
	c-17.006,0-30.844-13.838-30.844-30.846c0-0.38-0.31-0.689-0.689-0.689s-0.689,0.309-0.689,0.689
	c0,17.77,14.455,32.227,32.223,32.227c17.769,0,32.225-14.457,32.225-32.227C81.24,49.664,81.225,49.229,81.21,48.795z"/>
</svg>
