<?xml version="1.0" encoding="utf-8"?>
<!-- Generator: Adobe Illustrator 15.0.0, SVG Export Plug-In  -->
<!DOCTYPE svg PUBLIC "-//W3C//DTD SVG 1.1//EN" "http://www.w3.org/Graphics/SVG/1.1/DTD/svg11.dtd" [
	<!ENTITY ns_flows "http://ns.adobe.com/Flows/1.0/">
]>
<svg version="1.1"
	 xmlns="http://www.w3.org/2000/svg" xmlns:xlink="http://www.w3.org/1999/xlink" xmlns:a="http://ns.adobe.com/AdobeSVGViewerExtensions/3.0/"
	 x="0px" y="0px" width="100px" height="100px" viewBox="0 0 100 100" enable-background="new 0 0 100 100" xml:space="preserve">
<defs>
</defs>
<defs>
	<filter id="Adobe_OpacityMaskFilter" filterUnits="userSpaceOnUse" x="0" y="0" width="99.797" height="99.798">
		<feColorMatrix  type="matrix" values="1 0 0 0 0  0 1 0 0 0  0 0 1 0 0  0 0 0 1 0"/>
	</filter>
</defs>
<mask maskUnits="userSpaceOnUse" x="0" y="0" width="99.797" height="99.798" id="SVGID_1_">
	<g filter="url(#Adobe_OpacityMaskFilter)">
		<radialGradient id="SVGID_2_" cx="49.8984" cy="49.8989" r="49.8989" gradientUnits="userSpaceOnUse">
			<stop  offset="0.3531" style="stop-color:#949494"/>
			<stop  offset="0.4014" style="stop-color:#818082"/>
			<stop  offset="0.5573" style="stop-color:#4B4D51"/>
			<stop  offset="0.6981" style="stop-color:#292B30"/>
			<stop  offset="0.8191" style="stop-color:#121418"/>
			<stop  offset="0.9154" style="stop-color:#040507"/>
			<stop  offset="0.975" style="stop-color:#010202"/>
		</radialGradient>
		<circle fill="url(#SVGID_2_)" cx="49.898" cy="49.898" r="49.898"/>
	</g>
</mask>
<circle mask="url(#SVGID_1_)" fill="#3668B0" cx="49.898" cy="49.898" r="49.898"/>
<linearGradient id="SVGID_3_" gradientUnits="userSpaceOnUse" x1="32.3516" y1="30.4468" x2="68.3519" y2="66.4471">
	<stop  offset="0" style="stop-color:#19407E"/>
	<stop  offset="1" style="stop-color:#3B68B0"/>
</linearGradient>
<circle fill="url(#SVGID_3_)" cx="50.409" cy="48.504" r="24.067"/>
<path fill="#4694D1" d="M50.174,23.132c-9.082,0-17.555,4.885-22.111,12.75c-0.826,1.422-1.518,2.939-2.055,4.508
	c-0.302,0.883,0.168,1.844,1.049,2.145c0.886,0.305,1.845-0.168,2.147-1.049c0.468-1.357,1.065-2.676,1.781-3.908
	c3.957-6.828,11.309-11.068,19.188-11.068c12.216,0,22.157,9.939,22.157,22.158c0,12.215-9.941,22.159-22.157,22.159
	c-12.22,0-22.158-9.943-22.158-22.159c0-0.934-0.757-1.689-1.689-1.689c-0.934,0-1.688,0.756-1.688,1.689
	c0,14.079,11.455,25.536,25.535,25.536s25.535-11.457,25.535-25.536C75.709,34.587,64.254,23.132,50.174,23.132z M20.338,47.108
	h-7.172c-0.931,0-1.688,0.756-1.688,1.691c0,0.93,0.757,1.688,1.688,1.688h7.172c0.932,0,1.688-0.758,1.688-1.688
	C22.026,47.864,21.27,47.108,20.338,47.108z M87.512,47.108h-7.168c-0.934,0-1.691,0.756-1.691,1.691
	c0,0.93,0.758,1.688,1.691,1.688h7.168c0.933,0,1.689-0.758,1.689-1.688C89.201,47.864,88.444,47.108,87.512,47.108z M50.341,77.115
	c-0.933,0-1.689,0.756-1.689,1.688v7.168c0,0.934,0.757,1.689,1.689,1.689c0.932,0,1.688-0.756,1.688-1.689v-7.168
	C52.028,77.871,51.272,77.115,50.341,77.115z M50.341,20.483c0.932,0,1.688-0.758,1.688-1.688v-7.174
	c0-0.93-0.756-1.688-1.688-1.688c-0.933,0-1.689,0.758-1.689,1.688v7.174C48.651,19.726,49.408,20.483,50.341,20.483z M27.93,28.776
	c0.33,0.33,0.763,0.494,1.195,0.494c0.432,0,0.864-0.164,1.194-0.494c0.659-0.658,0.659-1.729,0-2.391l-5.07-5.068
	c-0.659-0.658-1.729-0.66-2.389,0c-0.661,0.66-0.661,1.729,0,2.389L27.93,28.776z M72.748,68.818c-0.658-0.658-1.729-0.658-2.387,0
	c-0.661,0.662-0.661,1.73,0,2.391l5.069,5.07c0.331,0.328,0.764,0.494,1.194,0.494c0.432,0,0.865-0.166,1.195-0.494
	c0.66-0.66,0.66-1.73,0-2.391L72.748,68.818z M27.93,68.818l-5.068,5.07c-0.66,0.66-0.66,1.73-0.001,2.391
	c0.332,0.328,0.763,0.494,1.196,0.494c0.431,0,0.864-0.166,1.194-0.494l5.068-5.07c0.659-0.66,0.659-1.729,0-2.391
	C29.66,68.16,28.59,68.16,27.93,68.818z M75.431,21.317l-5.069,5.068c-0.661,0.662-0.661,1.73,0,2.391
	c0.328,0.33,0.762,0.494,1.193,0.494c0.435,0,0.865-0.164,1.193-0.494l5.072-5.07c0.66-0.66,0.66-1.729,0-2.389
	C77.16,20.659,76.09,20.657,75.431,21.317z"/>
<path fill="#97D5F0" d="M29.125,69.324c-0.185,0-0.358,0.072-0.489,0.201l-5.067,5.07c-0.27,0.27-0.27,0.707,0,0.977
	c0.257,0.256,0.713,0.26,0.979-0.002l5.065-5.068c0.269-0.27,0.269-0.707-0.002-0.979C29.482,69.396,29.31,69.324,29.125,69.324z
	 M28.637,28.069c0.26,0.26,0.716,0.26,0.976,0c0.269-0.269,0.269-0.707-0.002-0.979l-5.068-5.066
	c-0.13-0.13-0.304-0.201-0.488-0.201c-0.184,0-0.356,0.071-0.485,0.201c-0.132,0.131-0.204,0.304-0.204,0.487
	s0.072,0.356,0.203,0.487L28.637,28.069z M87.512,48.108h-7.168c-0.381,0-0.691,0.311-0.691,0.691c0,0.379,0.311,0.688,0.691,0.688
	h7.168c0.38,0,0.689-0.309,0.689-0.688C88.201,48.419,87.892,48.108,87.512,48.108z M50.174,24.132
	c-8.728,0-16.868,4.694-21.246,12.252c-0.793,1.365-1.457,2.822-1.974,4.33c-0.06,0.174-0.048,0.361,0.033,0.527
	c0.08,0.164,0.22,0.287,0.394,0.347c0.365,0.126,0.756-0.075,0.878-0.428c0.494-1.435,1.12-2.81,1.862-4.085
	c4.135-7.135,11.817-11.566,20.053-11.566c12.769,0,23.157,10.389,23.157,23.158c0,12.77-10.389,23.159-23.157,23.159
	c-12.77,0-23.158-10.389-23.158-23.159c0-0.381-0.31-0.689-0.689-0.689c-0.379,0-0.688,0.309-0.688,0.689
	c0,13.53,11.006,24.536,24.535,24.536c13.528,0,24.535-11.006,24.535-24.536C74.709,35.138,63.702,24.132,50.174,24.132z
	 M72.041,69.525c-0.13-0.129-0.302-0.201-0.486-0.201s-0.356,0.072-0.486,0.201c-0.131,0.131-0.203,0.305-0.203,0.488
	s0.072,0.357,0.203,0.488l5.069,5.07c0.261,0.258,0.715,0.26,0.978-0.002c0.268-0.268,0.268-0.705-0.002-0.975L72.041,69.525z
	 M20.338,48.108h-7.172c-0.379,0-0.688,0.311-0.688,0.691c0,0.379,0.309,0.688,0.688,0.688h7.172c0.38,0,0.688-0.309,0.688-0.688
	C21.026,48.419,20.718,48.108,20.338,48.108z M50.341,78.115c-0.38,0-0.689,0.309-0.689,0.688v7.168c0,0.381,0.31,0.689,0.689,0.689
	c0.379,0,0.688-0.309,0.688-0.689v-7.168C51.028,78.423,50.72,78.115,50.341,78.115z M72.039,28.071l5.074-5.072
	c0.27-0.269,0.27-0.706,0-0.975c-0.13-0.129-0.304-0.201-0.489-0.201c-0.184,0-0.356,0.071-0.485,0.201l-5.07,5.068
	c-0.131,0.131-0.203,0.305-0.203,0.489c0,0.184,0.072,0.356,0.203,0.487C71.328,28.331,71.783,28.328,72.039,28.071z M50.341,19.483
	c0.379,0,0.688-0.309,0.688-0.688v-7.174c0-0.379-0.309-0.688-0.688-0.688c-0.38,0-0.689,0.309-0.689,0.688v7.174
	C49.651,19.175,49.961,19.483,50.341,19.483z"/>
</svg>
